<svg width="32" height="32" viewBox="0 0 32 32" fill="none" xmlns="http://www.w3.org/2000/svg">
<path d="M20.822 15.9999C20.6549 15.9999 20.4749 15.9741 20.3077 15.9227C19.988 15.8147 19.7104 15.6088 19.5142 15.3342C19.3181 15.0596 19.2133 14.7302 19.2149 14.3927V12.1299C17.4149 11.9627 16.0006 10.4456 16.0006 8.607V4.107C16.0006 2.15272 17.582 0.571289 19.5363 0.571289H27.8934C29.8477 0.571289 31.4292 2.15272 31.4292 4.107V8.607C31.4292 10.5613 29.8477 12.1427 27.8934 12.1427H24.5249L22.1077 15.357C21.7992 15.7684 21.3234 15.9999 20.822 15.9999ZM19.5363 2.49986C18.6492 2.49986 17.9292 3.21986 17.9292 4.107V8.607C17.9292 9.49415 18.6492 10.2141 19.5363 10.2141H21.1434V13.4284L23.5606 10.2141H27.9063C28.7934 10.2141 29.5134 9.49415 29.5134 8.607V4.107C29.5134 3.21986 28.7934 2.49986 27.9063 2.49986H19.5363ZM10.2149 19.2141C8.7667 19.2108 7.37881 18.634 6.35479 17.6099C5.33077 16.5859 4.75398 15.198 4.75059 13.7499C4.75398 12.3017 5.33077 10.9138 6.35479 9.88978C7.37881 8.86576 8.7667 8.28897 10.2149 8.28557C11.663 8.28897 13.0509 8.86576 14.075 9.88978C15.099 10.9138 15.6758 12.3017 15.6792 13.7499C15.6758 15.198 15.099 16.5859 14.075 17.6099C13.0509 18.634 11.663 19.2108 10.2149 19.2141ZM10.2149 10.2141C8.26059 10.2141 6.67916 11.7956 6.67916 13.7499C6.67916 15.7041 8.26059 17.2856 10.2149 17.2856C12.1692 17.2856 13.7506 15.7041 13.7506 13.7499C13.7506 11.7956 12.1692 10.2141 10.2149 10.2141ZM2.4633 28.7541C4.14759 30.5284 6.75759 31.4284 10.2162 31.4284C13.6747 31.4284 16.2847 30.5284 17.969 28.7541C19.9259 26.6841 19.8629 24.186 19.859 24.0176V24.0099C19.859 22.4284 18.5733 21.1427 16.9919 21.1427H3.44044C1.85902 21.1427 0.573302 22.4284 0.573302 23.9584V23.9751C0.568159 24.2194 0.519302 26.697 2.4633 28.7541ZM2.50187 24.0099C2.50187 23.4956 2.92616 23.0713 3.44044 23.0713H16.9919C17.5062 23.0713 17.9304 23.4956 17.9304 24.0613V24.0639C17.9029 25.3147 17.4181 26.5122 16.5676 27.4299C15.269 28.8056 13.109 29.4999 10.2162 29.4999C7.3233 29.4999 5.20187 28.8184 3.89044 27.4556C3.0055 26.5316 2.50853 25.3034 2.50187 24.024V24.0099Z" fill="black"/>
</svg>
