<svg width="34" height="33" viewBox="0 0 34 33" fill="none" xmlns="http://www.w3.org/2000/svg">
<path d="M30.375 10.25H23.625C22.7302 10.2509 21.8722 10.6068 21.2395 11.2395C20.6068 11.8722 20.2509 12.7302 20.25 13.625V20.375C20.2506 20.9716 20.4878 21.5435 20.9097 21.9653C21.3315 22.3872 21.9034 22.6244 22.5 22.625V30.5C22.5006 31.0966 22.7378 31.6685 23.1597 32.0903C23.5815 32.5122 24.1534 32.7494 24.75 32.75H29.25C29.8466 32.7494 30.4185 32.5122 30.8403 32.0903C31.2622 31.6685 31.4994 31.0966 31.5 30.5V22.625C32.0966 22.6244 32.6685 22.3872 33.0903 21.9653C33.5122 21.5435 33.7494 20.9716 33.75 20.375V13.625C33.7491 12.7302 33.3932 11.8722 32.7605 11.2395C32.1278 10.6068 31.2698 10.2509 30.375 10.25ZM31.5 20.375H29.25V30.5H24.75V20.375H22.5V13.625C22.5 13.3266 22.6185 13.0405 22.8295 12.8295C23.0405 12.6185 23.3266 12.5 23.625 12.5H30.375C30.6734 12.5 30.9595 12.6185 31.1705 12.8295C31.3815 13.0405 31.5 13.3266 31.5 13.625V20.375ZM22.5 4.625C22.5 3.73499 22.7639 2.86496 23.2584 2.12494C23.7529 1.38491 24.4557 0.808138 25.2779 0.467544C26.1002 0.12695 27.005 0.0378348 27.8779 0.211468C28.7508 0.385102 29.5526 0.813685 30.182 1.44302C30.8113 2.07236 31.2399 2.87418 31.4135 3.7471C31.5872 4.62001 31.4981 5.52481 31.1575 6.34708C30.8169 7.16934 30.2401 7.87215 29.5001 8.36662C28.76 8.86108 27.89 9.125 27 9.125C25.8069 9.12381 24.663 8.64932 23.8193 7.80567C22.9757 6.96201 22.5012 5.81811 22.5 4.625ZM24.75 4.625C24.75 5.07001 24.882 5.50502 25.1292 5.87503C25.3764 6.24505 25.7278 6.53343 26.139 6.70373C26.5501 6.87403 27.0025 6.91859 27.439 6.83177C27.8754 6.74495 28.2763 6.53066 28.591 6.21599C28.9057 5.90132 29.12 5.50041 29.2068 5.06396C29.2936 4.6275 29.249 4.1751 29.0787 3.76396C28.9084 3.35283 28.62 3.00143 28.25 2.7542C27.88 2.50696 27.445 2.375 27 2.375C26.4034 2.3756 25.8315 2.61284 25.4097 3.03467C24.9878 3.4565 24.7506 4.02845 24.75 4.625ZM15.75 17V13.625C15.7491 12.7302 15.3932 11.8722 14.7605 11.2395C14.1278 10.6068 13.2698 10.2509 12.375 10.25H5.625C4.73017 10.2509 3.87224 10.6068 3.2395 11.2395C2.60676 11.8722 2.25089 12.7302 2.25 13.625V17H0V19.25H18V17H15.75ZM4.5 13.625C4.5 13.3266 4.61853 13.0405 4.82951 12.8295C5.04048 12.6185 5.32663 12.5 5.625 12.5H12.375C12.6734 12.5 12.9595 12.6185 13.1705 12.8295C13.3815 13.0405 13.5 13.3266 13.5 13.625V17H4.5V13.625ZM4.5 4.625C4.5 3.73499 4.76392 2.86496 5.25839 2.12494C5.75285 1.38491 6.45566 0.808138 7.27792 0.467544C8.10019 0.12695 9.00499 0.0378348 9.87791 0.211468C10.7508 0.385102 11.5526 0.813685 12.182 1.44302C12.8113 2.07236 13.2399 2.87418 13.4135 3.7471C13.5872 4.62001 13.4981 5.52481 13.1575 6.34708C12.8169 7.16934 12.2401 7.87215 11.5001 8.36662C10.76 8.86108 9.89002 9.125 9 9.125C7.80689 9.12381 6.66299 8.64932 5.81934 7.80567C4.97568 6.96201 4.50119 5.81811 4.5 4.625ZM6.75 4.625C6.75 5.07001 6.88196 5.50502 7.12919 5.87503C7.37643 6.24505 7.72783 6.53343 8.13896 6.70373C8.5501 6.87403 9.0025 6.91859 9.43895 6.83177C9.87541 6.74495 10.2763 6.53066 10.591 6.21599C10.9057 5.90132 11.12 5.50041 11.2068 5.06396C11.2936 4.6275 11.249 4.1751 11.0787 3.76396C10.9084 3.35283 10.62 3.00143 10.25 2.7542C9.88002 2.50696 9.44501 2.375 9 2.375C8.40345 2.3756 7.8315 2.61284 7.40967 3.03467C6.98784 3.4565 6.7506 4.02845 6.75 4.625Z" fill="white"/>
</svg>
