<svg width="37" height="37" viewBox="0 0 37 37" fill="none" xmlns="http://www.w3.org/2000/svg">
<path d="M34 2.99963H12.475V1.12763C12.475 0.0816343 11.735 -0.307366 10.83 0.262634L0.690033 6.65163C-0.214966 7.22163 -0.231966 8.17863 0.652034 8.77864L10.867 15.7096C11.751 16.3116 12.474 15.9446 12.474 14.8986V12.9996H34C34.5305 12.9996 35.0392 12.7889 35.4142 12.4138C35.7893 12.0388 36 11.5301 36 10.9996V4.99963C36 4.4692 35.7893 3.96049 35.4142 3.58542C35.0392 3.21035 34.5305 2.99963 34 2.99963ZM0.0240335 26.1836C0.0240335 25.4566 0.524033 25.0466 1.22103 25.0466H4.13003C5.70603 25.0466 6.97903 26.1076 6.97903 27.7136C6.97903 28.7746 6.54003 29.4856 5.57003 29.9406V29.9706C6.85803 30.1536 7.87303 31.2286 7.87303 32.5466C7.87303 34.6836 6.44903 35.8346 4.35703 35.8346H1.23703C0.540033 35.8346 0.0250335 35.3956 0.0250335 34.6836V26.1836H0.0240335ZM2.29703 29.3186H3.47903C4.22103 29.3186 4.70603 28.8796 4.70603 28.1226C4.70603 27.4096 4.14503 27.0466 3.47903 27.0466H2.29703V29.3186ZM2.29703 33.8346H4.08503C4.90303 33.8346 5.50903 33.3646 5.50903 32.5166C5.50903 31.8046 4.96403 31.3196 3.90303 31.3196H2.29703V33.8346ZM11.514 26.1216C11.772 25.4256 12.364 24.8646 13.135 24.8646C13.94 24.8646 14.5 25.3946 14.756 26.1216L17.727 34.3646C17.819 34.6066 17.848 34.8186 17.848 34.9256C17.848 35.5166 17.364 35.9256 16.803 35.9256C16.166 35.9256 15.848 35.5926 15.696 35.1376L15.243 33.7136H11.03L10.575 35.1226C10.425 35.5926 10.106 35.9256 9.48503 35.9256C8.87803 35.9256 8.36303 35.4716 8.36303 34.8646C8.36303 34.6226 8.43903 34.4406 8.46903 34.3646L11.514 26.1216ZM11.682 31.6226H14.561L13.151 27.2276H13.122L11.682 31.6226ZM23.06 24.8646C24.166 24.8646 26.318 25.2276 26.318 26.5606C26.318 27.1066 25.939 27.5766 25.378 27.5766C24.757 27.5766 24.332 27.0466 23.06 27.0466C21.181 27.0466 20.211 28.6376 20.211 30.4856C20.211 32.2886 21.196 33.8346 23.06 33.8346C24.332 33.8346 24.848 33.1976 25.469 33.1976C26.151 33.1976 26.469 33.8796 26.469 34.2276C26.469 35.6826 24.181 36.0156 23.06 36.0156C19.984 36.0156 17.848 33.5766 17.848 30.4396C17.848 27.2886 19.969 24.8646 23.06 24.8646ZM27.531 26.0766C27.531 25.4556 27.986 24.9556 28.668 24.9556C29.319 24.9556 29.805 25.3796 29.805 26.0766V29.3496L33.532 25.3796C33.699 25.1976 33.987 24.9556 34.411 24.9556C34.987 24.9556 35.532 25.3946 35.532 26.0466C35.532 26.4396 35.29 26.7586 34.79 27.2586L31.927 30.0766L35.427 33.7276C35.79 34.0916 36.064 34.4246 36.064 34.8796C36.064 35.5916 35.502 35.9246 34.881 35.9246C34.441 35.9246 34.154 35.6666 33.73 35.2126L29.806 30.9696V34.8336C29.806 35.4246 29.351 35.9246 28.669 35.9246C28.018 35.9246 27.532 35.5006 27.532 34.8336L27.531 26.0766Z" fill="#51336A"/>
</svg>
