<svg width="20" height="20" viewBox="0 0 20 20" fill="none" xmlns="http://www.w3.org/2000/svg">
<path d="M6.33398 9.08325C6.59371 9.08325 6.81141 8.9954 6.98711 8.81971C7.1628 8.64402 7.25065 8.42631 7.25065 8.16658C7.25065 7.90686 7.1628 7.68915 6.98711 7.51346C6.81141 7.33777 6.59371 7.24992 6.33398 7.24992C6.07426 7.24992 5.85655 7.33777 5.68086 7.51346C5.50516 7.68915 5.41732 7.90686 5.41732 8.16658C5.41732 8.42631 5.50516 8.64402 5.68086 8.81971C5.85655 8.9954 6.07426 9.08325 6.33398 9.08325ZM10.0007 9.08325C10.2604 9.08325 10.4781 8.9954 10.6538 8.81971C10.8295 8.64402 10.9173 8.42631 10.9173 8.16658C10.9173 7.90686 10.8295 7.68915 10.6538 7.51346C10.4781 7.33777 10.2604 7.24992 10.0007 7.24992C9.74093 7.24992 9.52322 7.33777 9.34753 7.51346C9.17183 7.68915 9.08398 7.90686 9.08398 8.16658C9.08398 8.42631 9.17183 8.64402 9.34753 8.81971C9.52322 8.9954 9.74093 9.08325 10.0007 9.08325ZM13.6673 9.08325C13.927 9.08325 14.1447 8.9954 14.3204 8.81971C14.4961 8.64402 14.584 8.42631 14.584 8.16658C14.584 7.90686 14.4961 7.68915 14.3204 7.51346C14.1447 7.33777 13.927 7.24992 13.6673 7.24992C13.4076 7.24992 13.1899 7.33777 13.0142 7.51346C12.8385 7.68915 12.7507 7.90686 12.7507 8.16658C12.7507 8.42631 12.8385 8.64402 13.0142 8.81971C13.1899 8.9954 13.4076 9.08325 13.6673 9.08325ZM0.833984 19.1666V2.66659C0.833984 2.16242 1.0135 1.73082 1.37253 1.37179C1.73155 1.01277 2.16315 0.833252 2.66732 0.833252H17.334C17.8382 0.833252 18.2697 1.01277 18.6288 1.37179C18.9878 1.73082 19.1673 2.16242 19.1673 2.66659V13.6666C19.1673 14.1708 18.9878 14.6023 18.6288 14.9614C18.2697 15.3204 17.8382 15.4999 17.334 15.4999H4.50065L0.833984 19.1666ZM3.72148 13.6666H17.334V2.66659H2.66732V14.6978L3.72148 13.6666Z" fill="#707070"/>
</svg>
