<svg width="94" height="30" viewBox="0 0 94 30" fill="none" xmlns="http://www.w3.org/2000/svg">
<rect width="94" height="24" fill="black"/>
<path d="M4.5 28.2439C3.22138 27.792 2.20799 26.7786 1.75606 25.5H4.5V28.2439Z" stroke="black" stroke-width="3"/>
<path d="M13.8027 11.4453C14.2539 11.4453 14.6048 11.3826 14.8555 11.2573C15.2493 11.0604 15.4463 10.7059 15.4463 10.1938C15.4463 9.67822 15.2368 9.33089 14.8179 9.15186C14.5815 9.0516 14.2306 9.00146 13.7651 9.00146H11.8584V11.4453H13.8027ZM14.1626 15.0869C14.8179 15.0869 15.2852 14.8971 15.5645 14.5176C15.7399 14.2777 15.8276 13.9876 15.8276 13.6475C15.8276 13.0745 15.5716 12.6842 15.0596 12.4766C14.7874 12.3656 14.4276 12.3101 13.98 12.3101H11.8584V15.0869H14.1626ZM10.811 8.10986H14.2002C15.124 8.10986 15.7811 8.38558 16.1714 8.93701C16.4006 9.26286 16.5151 9.63883 16.5151 10.0649C16.5151 10.5627 16.3737 10.9709 16.0908 11.2896C15.944 11.4578 15.7327 11.6118 15.457 11.7515C15.8617 11.9054 16.1642 12.0791 16.3647 12.2725C16.7192 12.6162 16.8965 13.0907 16.8965 13.6958C16.8965 14.2043 16.7371 14.6644 16.4185 15.0762C15.9422 15.6921 15.1849 16 14.1465 16H10.811V8.10986ZM18.2769 8.10986H24.0293V9.07666H19.3188V11.4722H23.6748V12.3853H19.3188V15.0601H24.1099V16H18.2769V8.10986ZM26.21 13.4541C26.235 13.9017 26.3407 14.2651 26.5269 14.5444C26.8813 15.0672 27.5062 15.3286 28.4014 15.3286C28.8024 15.3286 29.1676 15.2713 29.4971 15.1567C30.1344 14.9347 30.4531 14.5373 30.4531 13.9644C30.4531 13.5347 30.3188 13.2285 30.0503 13.0459C29.7782 12.8669 29.3521 12.7111 28.772 12.5786L27.7031 12.3369C27.0049 12.1794 26.5107 12.0057 26.2207 11.8159C25.7194 11.4865 25.4688 10.9941 25.4688 10.3389C25.4688 9.62988 25.714 9.04801 26.2046 8.59326C26.6951 8.13851 27.3898 7.91113 28.2886 7.91113C29.1157 7.91113 29.8175 8.11165 30.394 8.5127C30.9741 8.91016 31.2642 9.54753 31.2642 10.4248H30.2598C30.2061 10.0023 30.0915 9.67822 29.916 9.45264C29.5902 9.04085 29.0369 8.83496 28.2563 8.83496C27.6261 8.83496 27.1732 8.96745 26.8975 9.23242C26.6217 9.4974 26.4839 9.80534 26.4839 10.1562C26.4839 10.543 26.645 10.8258 26.9673 11.0049C27.1785 11.1195 27.6566 11.2627 28.4014 11.4346L29.5078 11.687C30.0413 11.8088 30.4531 11.9753 30.7432 12.1865C31.2445 12.5553 31.4951 13.0907 31.4951 13.7925C31.4951 14.6662 31.1764 15.291 30.5391 15.667C29.9053 16.043 29.1676 16.231 28.3262 16.231C27.3451 16.231 26.577 15.9803 26.022 15.479C25.467 14.9813 25.1948 14.3063 25.2056 13.4541H26.21ZM38.5903 8.10986V9.0498H35.9316V16H34.8467V9.0498H32.188V8.10986H38.5903ZM45.8467 7.89502C47.2396 7.89502 48.2708 8.34261 48.9404 9.23779C49.4632 9.93604 49.7246 10.8294 49.7246 11.918C49.7246 13.096 49.4256 14.0754 48.8276 14.856C48.1258 15.7726 47.125 16.231 45.8252 16.231C44.6113 16.231 43.6571 15.8299 42.9624 15.0278C42.3429 14.2544 42.0332 13.2769 42.0332 12.0952C42.0332 11.0282 42.2982 10.1151 42.8281 9.35596C43.5085 8.382 44.5146 7.89502 45.8467 7.89502ZM45.9541 15.2749C46.8958 15.2749 47.5762 14.9383 47.9951 14.2651C48.4176 13.5884 48.6289 12.8114 48.6289 11.9341C48.6289 11.0067 48.3854 10.2601 47.8984 9.69434C47.415 9.12858 46.7526 8.8457 45.9111 8.8457C45.0947 8.8457 44.4287 9.12679 43.9131 9.68896C43.3975 10.2476 43.1396 11.0729 43.1396 12.165C43.1396 13.0387 43.3599 13.7764 43.8003 14.3779C44.2443 14.9759 44.9622 15.2749 45.9541 15.2749ZM51.105 8.10986H56.5781V9.07666H52.1738V11.4722H56.0464V12.4121H52.1738V16H51.105V8.10986ZM57.8296 8.10986H63.3027V9.07666H58.8984V11.4722H62.771V12.4121H58.8984V16H57.8296V8.10986ZM64.5542 8.10986H70.3066V9.07666H65.5962V11.4722H69.9521V12.3853H65.5962V15.0601H70.3872V16H64.5542V8.10986ZM75.4575 11.7246C75.9588 11.7246 76.3545 11.6243 76.6445 11.4238C76.9382 11.2233 77.085 10.8617 77.085 10.3389C77.085 9.77669 76.8809 9.39355 76.4727 9.18945C76.2542 9.08203 75.9624 9.02832 75.5972 9.02832H72.9868V11.7246H75.4575ZM71.918 8.10986H75.5703C76.1719 8.10986 76.6678 8.19759 77.0581 8.37305C77.7993 8.70964 78.1699 9.33089 78.1699 10.2368C78.1699 10.7095 78.0715 11.0962 77.8745 11.397C77.6812 11.6978 77.409 11.9395 77.0581 12.1221C77.366 12.2474 77.597 12.4121 77.751 12.6162C77.9085 12.8203 77.9963 13.1515 78.0142 13.6099L78.0518 14.668C78.0625 14.9688 78.0876 15.1925 78.127 15.3394C78.1914 15.59 78.306 15.7511 78.4707 15.8228V16H77.1602C77.1243 15.932 77.0957 15.8442 77.0742 15.7368C77.0527 15.6294 77.0348 15.4217 77.0205 15.1138L76.9561 13.7979C76.931 13.2822 76.7394 12.9367 76.3813 12.7612C76.1772 12.6646 75.8568 12.6162 75.4199 12.6162H72.9868V16H71.918V8.10986ZM80.4365 13.4541C80.4616 13.9017 80.5672 14.2651 80.7534 14.5444C81.1079 15.0672 81.7327 15.3286 82.6279 15.3286C83.029 15.3286 83.3942 15.2713 83.7236 15.1567C84.361 14.9347 84.6797 14.5373 84.6797 13.9644C84.6797 13.5347 84.5454 13.2285 84.2769 13.0459C84.0047 12.8669 83.5786 12.7111 82.9985 12.5786L81.9297 12.3369C81.2314 12.1794 80.7373 12.0057 80.4473 11.8159C79.946 11.4865 79.6953 10.9941 79.6953 10.3389C79.6953 9.62988 79.9406 9.04801 80.4312 8.59326C80.9217 8.13851 81.6164 7.91113 82.5151 7.91113C83.3423 7.91113 84.0441 8.11165 84.6206 8.5127C85.2007 8.91016 85.4907 9.54753 85.4907 10.4248H84.4863C84.4326 10.0023 84.318 9.67822 84.1426 9.45264C83.8167 9.04085 83.2635 8.83496 82.4829 8.83496C81.8527 8.83496 81.3997 8.96745 81.124 9.23242C80.8483 9.4974 80.7104 9.80534 80.7104 10.1562C80.7104 10.543 80.8716 10.8258 81.1938 11.0049C81.4051 11.1195 81.8831 11.2627 82.6279 11.4346L83.7344 11.687C84.2679 11.8088 84.6797 11.9753 84.9697 12.1865C85.471 12.5553 85.7217 13.0907 85.7217 13.7925C85.7217 14.6662 85.403 15.291 84.7656 15.667C84.1318 16.043 83.3942 16.231 82.5527 16.231C81.5716 16.231 80.8035 15.9803 80.2485 15.479C79.6935 14.9813 79.4214 14.3063 79.4321 13.4541H80.4365Z" fill="white"/>
</svg>
